ISO-10303-21;
HEADER;
/* Generated by software containing ST-Developer
 * from STEP Tools, Inc. (www.steptools.com) 
 */

FILE_DESCRIPTION(
/* description */ (''),
/* implementation_level */ '2;1');

FILE_NAME(
/* name */ 'nalgene strap v2.step',
/* time_stamp */ '2024-05-11T12:53:46-06:00',
/* author */ (''),
/* organization */ (''),
/* preprocessor_version */ 'ST-DEVELOPER v20',
/* originating_system */ 'Autodesk Translation Framework v12.20.1.177',

/* authorisation */ '');

FILE_SCHEMA (('AUTOMOTIVE_DESIGN { 1 0 10303 214 3 1 1 }'));
ENDSEC;

DATA;
#10=MECHANICAL_DESIGN_GEOMETRIC_PRESENTATION_REPRESENTATION('',(#13),#610);
#11=SHAPE_REPRESENTATION_RELATIONSHIP('SRR','None',#620,#12);
#12=ADVANCED_BREP_SHAPE_REPRESENTATION('',(#14),#609);
#13=STYLED_ITEM('',(#629),#14);
#14=MANIFOLD_SOLID_BREP('Body1',#330);
#15=B_SPLINE_CURVE_WITH_KNOTS('',3,(#543,#544,#545,#546,#547,#548,#549,
#550,#551,#552,#553,#554),.UNSPECIFIED.,.F.,.F.,(4,2,2,2,2,4),(-0.264634979809661,
-0.263903769653749,-0.195603950762573,-0.13103881914115,-0.0573861889210424,
0.),.UNSPECIFIED.);
#16=B_SPLINE_CURVE_WITH_KNOTS('',3,(#562,#563,#564,#565,#566,#567,#568,
#569,#570,#571,#572,#573),.UNSPECIFIED.,.F.,.F.,(4,2,2,2,2,4),(-0.308336904408019,
-0.241288677431435,-0.155235249572557,-0.0797993706423336,0.,0.000854323059548042),
 .UNSPECIFIED.);
#17=FACE_BOUND('',#100,.T.);
#18=FACE_BOUND('',#110,.T.);
#19=FACE_BOUND('',#116,.T.);
#20=FACE_BOUND('',#117,.T.);
#21=PLANE('',#351);
#22=PLANE('',#357);
#23=PLANE('',#372);
#24=PLANE('',#373);
#25=PLANE('',#376);
#26=PLANE('',#379);
#27=PLANE('',#382);
#28=LINE('',#502,#49);
#29=LINE('',#513,#50);
#30=LINE('',#516,#51);
#31=LINE('',#519,#52);
#32=LINE('',#521,#53);
#33=LINE('',#522,#54);
#34=LINE('',#528,#55);
#35=LINE('',#531,#56);
#36=LINE('',#538,#57);
#37=LINE('',#541,#58);
#38=LINE('',#558,#59);
#39=LINE('',#577,#60);
#40=LINE('',#578,#61);
#41=LINE('',#582,#62);
#42=LINE('',#586,#63);
#43=LINE('',#590,#64);
#44=LINE('',#592,#65);
#45=LINE('',#593,#66);
#46=LINE('',#596,#67);
#47=LINE('',#600,#68);
#48=LINE('',#601,#69);
#49=VECTOR('',#401,1.275);
#50=VECTOR('',#412,0.393700787401575);
#51=VECTOR('',#415,0.393700787401575);
#52=VECTOR('',#418,0.393700787401575);
#53=VECTOR('',#419,0.393700787401575);
#54=VECTOR('',#420,0.393700787401575);
#55=VECTOR('',#425,0.393700787401575);
#56=VECTOR('',#428,0.393700787401575);
#57=VECTOR('',#437,0.393700787401575);
#58=VECTOR('',#440,0.393700787401575);
#59=VECTOR('',#445,0.393700787401575);
#60=VECTOR('',#456,0.393700787401575);
#61=VECTOR('',#457,0.393700787401575);
#62=VECTOR('',#460,0.393700787401575);
#63=VECTOR('',#463,0.393700787401575);
#64=VECTOR('',#468,0.393700787401575);
#65=VECTOR('',#469,0.393700787401575);
#66=VECTOR('',#470,0.393700787401575);
#67=VECTOR('',#473,0.393700787401575);
#68=VECTOR('',#478,0.393700787401575);
#69=VECTOR('',#479,0.393700787401575);
#70=CYLINDRICAL_SURFACE('',#349,1.275);
#71=CYLINDRICAL_SURFACE('',#354,0.1);
#72=CYLINDRICAL_SURFACE('',#358,0.1);
#73=CYLINDRICAL_SURFACE('',#361,0.5925);
#74=CYLINDRICAL_SURFACE('',#364,0.1);
#75=CYLINDRICAL_SURFACE('',#367,0.1);
#76=CYLINDRICAL_SURFACE('',#377,0.0350000000000003);
#77=CYLINDRICAL_SURFACE('',#380,0.36);
#78=CYLINDRICAL_SURFACE('',#384,1.5);
#79=FACE_OUTER_BOUND('',#97,.T.);
#80=FACE_OUTER_BOUND('',#98,.T.);
#81=FACE_OUTER_BOUND('',#99,.T.);
#82=FACE_OUTER_BOUND('',#101,.T.);
#83=FACE_OUTER_BOUND('',#102,.T.);
#84=FACE_OUTER_BOUND('',#103,.T.);
#85=FACE_OUTER_BOUND('',#104,.T.);
#86=FACE_OUTER_BOUND('',#105,.T.);
#87=FACE_OUTER_BOUND('',#106,.T.);
#88=FACE_OUTER_BOUND('',#107,.T.);
#89=FACE_OUTER_BOUND('',#108,.T.);
#90=FACE_OUTER_BOUND('',#109,.T.);
#91=FACE_OUTER_BOUND('',#111,.T.);
#92=FACE_OUTER_BOUND('',#112,.T.);
#93=FACE_OUTER_BOUND('',#113,.T.);
#94=FACE_OUTER_BOUND('',#114,.T.);
#95=FACE_OUTER_BOUND('',#115,.T.);
#96=FACE_OUTER_BOUND('',#118,.T.);
#97=EDGE_LOOP('',(#218,#219,#220,#221,#222));
#98=EDGE_LOOP('',(#223,#224,#225,#226,#227));
#99=EDGE_LOOP('',(#228,#229));
#100=EDGE_LOOP('',(#230));
#101=EDGE_LOOP('',(#231,#232,#233,#234));
#102=EDGE_LOOP('',(#235,#236,#237,#238));
#103=EDGE_LOOP('',(#239,#240,#241,#242));
#104=EDGE_LOOP('',(#243,#244,#245,#246));
#105=EDGE_LOOP('',(#247,#248,#249,#250,#251));
#106=EDGE_LOOP('',(#252,#253,#254,#255,#256));
#107=EDGE_LOOP('',(#257,#258,#259,#260));
#108=EDGE_LOOP('',(#261,#262,#263,#264));
#109=EDGE_LOOP('',(#265,#266,#267,#268,#269,#270,#271,#272));
#110=EDGE_LOOP('',(#273,#274,#275,#276));
#111=EDGE_LOOP('',(#277,#278,#279,#280));
#112=EDGE_LOOP('',(#281,#282,#283,#284));
#113=EDGE_LOOP('',(#285,#286,#287,#288));
#114=EDGE_LOOP('',(#289,#290,#291,#292));
#115=EDGE_LOOP('',(#293,#294,#295,#296,#297,#298,#299,#300));
#116=EDGE_LOOP('',(#301));
#117=EDGE_LOOP('',(#302,#303,#304,#305));
#118=EDGE_LOOP('',(#306,#307,#308,#309));
#119=CIRCLE('',#345,1.275);
#120=CIRCLE('',#346,0.05);
#121=CIRCLE('',#347,1.325);
#122=CIRCLE('',#348,1.275);
#123=CIRCLE('',#350,1.275);
#124=CIRCLE('',#352,1.5);
#125=CIRCLE('',#353,1.5);
#126=CIRCLE('',#355,0.1);
#127=CIRCLE('',#356,0.1);
#128=CIRCLE('',#359,0.1);
#129=CIRCLE('',#360,0.1);
#130=CIRCLE('',#362,0.5925);
#131=CIRCLE('',#363,0.5925);
#132=CIRCLE('',#365,0.1);
#133=CIRCLE('',#366,0.1);
#134=CIRCLE('',#368,0.1);
#135=CIRCLE('',#369,0.1);
#136=CIRCLE('',#371,1.55);
#137=CIRCLE('',#374,0.36);
#138=CIRCLE('',#375,0.0350000000000003);
#139=CIRCLE('',#378,0.0350000000000003);
#140=CIRCLE('',#381,0.36);
#141=CIRCLE('',#383,1.5);
#142=VERTEX_POINT('',#492);
#143=VERTEX_POINT('',#493);
#144=VERTEX_POINT('',#495);
#145=VERTEX_POINT('',#500);
#146=VERTEX_POINT('',#504);
#147=VERTEX_POINT('',#505);
#148=VERTEX_POINT('',#509);
#149=VERTEX_POINT('',#510);
#150=VERTEX_POINT('',#512);
#151=VERTEX_POINT('',#514);
#152=VERTEX_POINT('',#518);
#153=VERTEX_POINT('',#520);
#154=VERTEX_POINT('',#524);
#155=VERTEX_POINT('',#525);
#156=VERTEX_POINT('',#527);
#157=VERTEX_POINT('',#529);
#158=VERTEX_POINT('',#536);
#159=VERTEX_POINT('',#537);
#160=VERTEX_POINT('',#539);
#161=VERTEX_POINT('',#542);
#162=VERTEX_POINT('',#557);
#163=VERTEX_POINT('',#560);
#164=VERTEX_POINT('',#580);
#165=VERTEX_POINT('',#581);
#166=VERTEX_POINT('',#583);
#167=VERTEX_POINT('',#585);
#168=VERTEX_POINT('',#589);
#169=VERTEX_POINT('',#591);
#170=VERTEX_POINT('',#595);
#171=VERTEX_POINT('',#599);
#172=EDGE_CURVE('',#142,#143,#119,.T.);
#173=EDGE_CURVE('',#143,#144,#120,.T.);
#174=EDGE_CURVE('',#144,#144,#121,.T.);
#175=EDGE_CURVE('',#143,#142,#122,.T.);
#176=EDGE_CURVE('',#145,#145,#123,.T.);
#177=EDGE_CURVE('',#145,#142,#28,.T.);
#178=EDGE_CURVE('',#146,#147,#124,.T.);
#179=EDGE_CURVE('',#147,#146,#125,.T.);
#180=EDGE_CURVE('',#148,#149,#126,.T.);
#181=EDGE_CURVE('',#149,#150,#29,.T.);
#182=EDGE_CURVE('',#150,#151,#127,.T.);
#183=EDGE_CURVE('',#151,#148,#30,.T.);
#184=EDGE_CURVE('',#149,#152,#31,.T.);
#185=EDGE_CURVE('',#153,#152,#32,.T.);
#186=EDGE_CURVE('',#150,#153,#33,.T.);
#187=EDGE_CURVE('',#154,#155,#128,.T.);
#188=EDGE_CURVE('',#155,#156,#34,.T.);
#189=EDGE_CURVE('',#156,#157,#129,.T.);
#190=EDGE_CURVE('',#157,#154,#35,.T.);
#191=EDGE_CURVE('',#156,#151,#130,.T.);
#192=EDGE_CURVE('',#155,#148,#131,.T.);
#193=EDGE_CURVE('',#158,#159,#36,.T.);
#194=EDGE_CURVE('',#159,#160,#132,.T.);
#195=EDGE_CURVE('',#160,#146,#37,.T.);
#196=EDGE_CURVE('',#146,#161,#15,.T.);
#197=EDGE_CURVE('',#161,#158,#133,.T.);
#198=EDGE_CURVE('',#147,#162,#38,.T.);
#199=EDGE_CURVE('',#162,#153,#134,.T.);
#200=EDGE_CURVE('',#152,#163,#135,.T.);
#201=EDGE_CURVE('',#163,#147,#16,.T.);
#202=EDGE_CURVE('',#163,#161,#136,.T.);
#203=EDGE_CURVE('',#159,#157,#39,.T.);
#204=EDGE_CURVE('',#158,#154,#40,.T.);
#205=EDGE_CURVE('',#164,#165,#41,.T.);
#206=EDGE_CURVE('',#166,#165,#137,.T.);
#207=EDGE_CURVE('',#166,#167,#42,.T.);
#208=EDGE_CURVE('',#167,#164,#138,.T.);
#209=EDGE_CURVE('',#164,#168,#43,.T.);
#210=EDGE_CURVE('',#169,#168,#44,.T.);
#211=EDGE_CURVE('',#165,#169,#45,.T.);
#212=EDGE_CURVE('',#167,#170,#46,.T.);
#213=EDGE_CURVE('',#168,#170,#139,.T.);
#214=EDGE_CURVE('',#171,#166,#47,.T.);
#215=EDGE_CURVE('',#170,#171,#48,.T.);
#216=EDGE_CURVE('',#171,#169,#140,.T.);
#217=EDGE_CURVE('',#162,#160,#141,.T.);
#218=ORIENTED_EDGE('',*,*,#172,.T.);
#219=ORIENTED_EDGE('',*,*,#173,.T.);
#220=ORIENTED_EDGE('',*,*,#174,.T.);
#221=ORIENTED_EDGE('',*,*,#173,.F.);
#222=ORIENTED_EDGE('',*,*,#175,.T.);
#223=ORIENTED_EDGE('',*,*,#176,.F.);
#224=ORIENTED_EDGE('',*,*,#177,.T.);
#225=ORIENTED_EDGE('',*,*,#175,.F.);
#226=ORIENTED_EDGE('',*,*,#172,.F.);
#227=ORIENTED_EDGE('',*,*,#177,.F.);
#228=ORIENTED_EDGE('',*,*,#178,.F.);
#229=ORIENTED_EDGE('',*,*,#179,.F.);
#230=ORIENTED_EDGE('',*,*,#174,.F.);
#231=ORIENTED_EDGE('',*,*,#180,.T.);
#232=ORIENTED_EDGE('',*,*,#181,.T.);
#233=ORIENTED_EDGE('',*,*,#182,.T.);
#234=ORIENTED_EDGE('',*,*,#183,.T.);
#235=ORIENTED_EDGE('',*,*,#181,.F.);
#236=ORIENTED_EDGE('',*,*,#184,.T.);
#237=ORIENTED_EDGE('',*,*,#185,.F.);
#238=ORIENTED_EDGE('',*,*,#186,.F.);
#239=ORIENTED_EDGE('',*,*,#187,.T.);
#240=ORIENTED_EDGE('',*,*,#188,.T.);
#241=ORIENTED_EDGE('',*,*,#189,.T.);
#242=ORIENTED_EDGE('',*,*,#190,.T.);
#243=ORIENTED_EDGE('',*,*,#183,.F.);
#244=ORIENTED_EDGE('',*,*,#191,.F.);
#245=ORIENTED_EDGE('',*,*,#188,.F.);
#246=ORIENTED_EDGE('',*,*,#192,.T.);
#247=ORIENTED_EDGE('',*,*,#193,.T.);
#248=ORIENTED_EDGE('',*,*,#194,.T.);
#249=ORIENTED_EDGE('',*,*,#195,.T.);
#250=ORIENTED_EDGE('',*,*,#196,.T.);
#251=ORIENTED_EDGE('',*,*,#197,.T.);
#252=ORIENTED_EDGE('',*,*,#198,.T.);
#253=ORIENTED_EDGE('',*,*,#199,.T.);
#254=ORIENTED_EDGE('',*,*,#185,.T.);
#255=ORIENTED_EDGE('',*,*,#200,.T.);
#256=ORIENTED_EDGE('',*,*,#201,.T.);
#257=ORIENTED_EDGE('',*,*,#178,.T.);
#258=ORIENTED_EDGE('',*,*,#201,.F.);
#259=ORIENTED_EDGE('',*,*,#202,.T.);
#260=ORIENTED_EDGE('',*,*,#196,.F.);
#261=ORIENTED_EDGE('',*,*,#190,.F.);
#262=ORIENTED_EDGE('',*,*,#203,.F.);
#263=ORIENTED_EDGE('',*,*,#193,.F.);
#264=ORIENTED_EDGE('',*,*,#204,.T.);
#265=ORIENTED_EDGE('',*,*,#202,.F.);
#266=ORIENTED_EDGE('',*,*,#200,.F.);
#267=ORIENTED_EDGE('',*,*,#184,.F.);
#268=ORIENTED_EDGE('',*,*,#180,.F.);
#269=ORIENTED_EDGE('',*,*,#192,.F.);
#270=ORIENTED_EDGE('',*,*,#187,.F.);
#271=ORIENTED_EDGE('',*,*,#204,.F.);
#272=ORIENTED_EDGE('',*,*,#197,.F.);
#273=ORIENTED_EDGE('',*,*,#205,.T.);
#274=ORIENTED_EDGE('',*,*,#206,.F.);
#275=ORIENTED_EDGE('',*,*,#207,.T.);
#276=ORIENTED_EDGE('',*,*,#208,.T.);
#277=ORIENTED_EDGE('',*,*,#205,.F.);
#278=ORIENTED_EDGE('',*,*,#209,.T.);
#279=ORIENTED_EDGE('',*,*,#210,.F.);
#280=ORIENTED_EDGE('',*,*,#211,.F.);
#281=ORIENTED_EDGE('',*,*,#208,.F.);
#282=ORIENTED_EDGE('',*,*,#212,.T.);
#283=ORIENTED_EDGE('',*,*,#213,.F.);
#284=ORIENTED_EDGE('',*,*,#209,.F.);
#285=ORIENTED_EDGE('',*,*,#207,.F.);
#286=ORIENTED_EDGE('',*,*,#214,.F.);
#287=ORIENTED_EDGE('',*,*,#215,.F.);
#288=ORIENTED_EDGE('',*,*,#212,.F.);
#289=ORIENTED_EDGE('',*,*,#211,.T.);
#290=ORIENTED_EDGE('',*,*,#216,.F.);
#291=ORIENTED_EDGE('',*,*,#214,.T.);
#292=ORIENTED_EDGE('',*,*,#206,.T.);
#293=ORIENTED_EDGE('',*,*,#217,.T.);
#294=ORIENTED_EDGE('',*,*,#194,.F.);
#295=ORIENTED_EDGE('',*,*,#203,.T.);
#296=ORIENTED_EDGE('',*,*,#189,.F.);
#297=ORIENTED_EDGE('',*,*,#191,.T.);
#298=ORIENTED_EDGE('',*,*,#182,.F.);
#299=ORIENTED_EDGE('',*,*,#186,.T.);
#300=ORIENTED_EDGE('',*,*,#199,.F.);
#301=ORIENTED_EDGE('',*,*,#176,.T.);
#302=ORIENTED_EDGE('',*,*,#210,.T.);
#303=ORIENTED_EDGE('',*,*,#213,.T.);
#304=ORIENTED_EDGE('',*,*,#215,.T.);
#305=ORIENTED_EDGE('',*,*,#216,.T.);
#306=ORIENTED_EDGE('',*,*,#195,.F.);
#307=ORIENTED_EDGE('',*,*,#217,.F.);
#308=ORIENTED_EDGE('',*,*,#198,.F.);
#309=ORIENTED_EDGE('',*,*,#179,.T.);
#310=TOROIDAL_SURFACE('',#344,1.325,0.05);
#311=TOROIDAL_SURFACE('',#370,1.55,0.05);
#312=ADVANCED_FACE('',(#79),#310,.T.);
#313=ADVANCED_FACE('',(#80),#70,.F.);
#314=ADVANCED_FACE('',(#81,#17),#21,.F.);
#315=ADVANCED_FACE('',(#82),#71,.F.);
#316=ADVANCED_FACE('',(#83),#22,.T.);
#317=ADVANCED_FACE('',(#84),#72,.F.);
#318=ADVANCED_FACE('',(#85),#73,.T.);
#319=ADVANCED_FACE('',(#86),#74,.F.);
#320=ADVANCED_FACE('',(#87),#75,.F.);
#321=ADVANCED_FACE('',(#88),#311,.F.);
#322=ADVANCED_FACE('',(#89),#23,.T.);
#323=ADVANCED_FACE('',(#90,#18),#24,.F.);
#324=ADVANCED_FACE('',(#91),#25,.F.);
#325=ADVANCED_FACE('',(#92),#76,.F.);
#326=ADVANCED_FACE('',(#93),#26,.F.);
#327=ADVANCED_FACE('',(#94),#77,.F.);
#328=ADVANCED_FACE('',(#95,#19,#20),#27,.T.);
#329=ADVANCED_FACE('',(#96),#78,.T.);
#330=CLOSED_SHELL('',(#312,#313,#314,#315,#316,#317,#318,#319,#320,#321,
#322,#323,#324,#325,#326,#327,#328,#329));
#331=DERIVED_UNIT_ELEMENT(#333,1.);
#332=DERIVED_UNIT_ELEMENT(#614,-3.);
#333=(
MASS_UNIT()
NAMED_UNIT(*)
SI_UNIT(.KILO.,.GRAM.)
);
#334=DERIVED_UNIT((#331,#332));
#335=MEASURE_REPRESENTATION_ITEM('density measure',
POSITIVE_RATIO_MEASURE(7850.),#334);
#336=PROPERTY_DEFINITION_REPRESENTATION(#341,#338);
#337=PROPERTY_DEFINITION_REPRESENTATION(#342,#339);
#338=REPRESENTATION('material name',(#340),#609);
#339=REPRESENTATION('density',(#335),#609);
#340=DESCRIPTIVE_REPRESENTATION_ITEM('Steel','Steel');
#341=PROPERTY_DEFINITION('material property','material name',#622);
#342=PROPERTY_DEFINITION('material property','density of part',#622);
#343=AXIS2_PLACEMENT_3D('',#490,#385,#386);
#344=AXIS2_PLACEMENT_3D('',#491,#387,#388);
#345=AXIS2_PLACEMENT_3D('',#494,#389,#390);
#346=AXIS2_PLACEMENT_3D('',#496,#391,#392);
#347=AXIS2_PLACEMENT_3D('',#497,#393,#394);
#348=AXIS2_PLACEMENT_3D('',#498,#395,#396);
#349=AXIS2_PLACEMENT_3D('',#499,#397,#398);
#350=AXIS2_PLACEMENT_3D('',#501,#399,#400);
#351=AXIS2_PLACEMENT_3D('',#503,#402,#403);
#352=AXIS2_PLACEMENT_3D('',#506,#404,#405);
#353=AXIS2_PLACEMENT_3D('',#507,#406,#407);
#354=AXIS2_PLACEMENT_3D('',#508,#408,#409);
#355=AXIS2_PLACEMENT_3D('',#511,#410,#411);
#356=AXIS2_PLACEMENT_3D('',#515,#413,#414);
#357=AXIS2_PLACEMENT_3D('',#517,#416,#417);
#358=AXIS2_PLACEMENT_3D('',#523,#421,#422);
#359=AXIS2_PLACEMENT_3D('',#526,#423,#424);
#360=AXIS2_PLACEMENT_3D('',#530,#426,#427);
#361=AXIS2_PLACEMENT_3D('',#532,#429,#430);
#362=AXIS2_PLACEMENT_3D('',#533,#431,#432);
#363=AXIS2_PLACEMENT_3D('',#534,#433,#434);
#364=AXIS2_PLACEMENT_3D('',#535,#435,#436);
#365=AXIS2_PLACEMENT_3D('',#540,#438,#439);
#366=AXIS2_PLACEMENT_3D('',#555,#441,#442);
#367=AXIS2_PLACEMENT_3D('',#556,#443,#444);
#368=AXIS2_PLACEMENT_3D('',#559,#446,#447);
#369=AXIS2_PLACEMENT_3D('',#561,#448,#449);
#370=AXIS2_PLACEMENT_3D('',#574,#450,#451);
#371=AXIS2_PLACEMENT_3D('',#575,#452,#453);
#372=AXIS2_PLACEMENT_3D('',#576,#454,#455);
#373=AXIS2_PLACEMENT_3D('',#579,#458,#459);
#374=AXIS2_PLACEMENT_3D('',#584,#461,#462);
#375=AXIS2_PLACEMENT_3D('',#587,#464,#465);
#376=AXIS2_PLACEMENT_3D('',#588,#466,#467);
#377=AXIS2_PLACEMENT_3D('',#594,#471,#472);
#378=AXIS2_PLACEMENT_3D('',#597,#474,#475);
#379=AXIS2_PLACEMENT_3D('',#598,#476,#477);
#380=AXIS2_PLACEMENT_3D('',#602,#480,#481);
#381=AXIS2_PLACEMENT_3D('',#603,#482,#483);
#382=AXIS2_PLACEMENT_3D('',#604,#484,#485);
#383=AXIS2_PLACEMENT_3D('',#605,#486,#487);
#384=AXIS2_PLACEMENT_3D('',#606,#488,#489);
#385=DIRECTION('axis',(0.,0.,1.));
#386=DIRECTION('refdir',(1.,0.,0.));
#387=DIRECTION('center_axis',(0.,0.,-1.));
#388=DIRECTION('ref_axis',(-1.,0.,0.));
#389=DIRECTION('center_axis',(0.,0.,1.));
#390=DIRECTION('ref_axis',(1.,0.,0.));
#391=DIRECTION('center_axis',(-1.22464679914735E-16,-1.,0.));
#392=DIRECTION('ref_axis',(1.,-1.22464679914735E-16,0.));
#393=DIRECTION('center_axis',(0.,0.,-1.));
#394=DIRECTION('ref_axis',(1.,0.,0.));
#395=DIRECTION('center_axis',(0.,0.,1.));
#396=DIRECTION('ref_axis',(1.,0.,0.));
#397=DIRECTION('center_axis',(0.,0.,1.));
#398=DIRECTION('ref_axis',(1.,0.,0.));
#399=DIRECTION('center_axis',(0.,0.,-1.));
#400=DIRECTION('ref_axis',(1.,0.,0.));
#401=DIRECTION('',(0.,0.,-1.));
#402=DIRECTION('center_axis',(0.,0.,1.));
#403=DIRECTION('ref_axis',(1.,0.,0.));
#404=DIRECTION('center_axis',(0.,0.,1.));
#405=DIRECTION('ref_axis',(1.,0.,0.));
#406=DIRECTION('center_axis',(0.,0.,1.));
#407=DIRECTION('ref_axis',(1.,0.,0.));
#408=DIRECTION('center_axis',(0.,0.,1.));
#409=DIRECTION('ref_axis',(0.535556767186793,-0.844499229792681,0.));
#410=DIRECTION('center_axis',(0.,0.,-1.));
#411=DIRECTION('ref_axis',(0.535556767186793,-0.844499229792681,0.));
#412=DIRECTION('',(0.,0.,1.));
#413=DIRECTION('center_axis',(0.,0.,1.));
#414=DIRECTION('ref_axis',(0.535556767186793,-0.844499229792681,0.));
#415=DIRECTION('',(0.,0.,-1.));
#416=DIRECTION('center_axis',(0.00135675237659109,0.999999079611071,0.));
#417=DIRECTION('ref_axis',(-0.999999079611071,0.00135675237659109,0.));
#418=DIRECTION('',(-0.999999079611071,0.00135675237659109,0.));
#419=DIRECTION('',(0.,0.,-1.));
#420=DIRECTION('',(-0.999999079611071,0.00135675237659109,0.));
#421=DIRECTION('center_axis',(0.,0.,1.));
#422=DIRECTION('ref_axis',(0.536072948892243,0.84417166113651,0.));
#423=DIRECTION('center_axis',(0.,0.,-1.));
#424=DIRECTION('ref_axis',(0.536072948892243,0.84417166113651,0.));
#425=DIRECTION('',(0.,0.,1.));
#426=DIRECTION('center_axis',(0.,0.,1.));
#427=DIRECTION('ref_axis',(0.536072948892243,0.84417166113651,0.));
#428=DIRECTION('',(0.,0.,-1.));
#429=DIRECTION('center_axis',(0.,0.,1.));
#430=DIRECTION('ref_axis',(1.,0.,0.));
#431=DIRECTION('center_axis',(0.,0.,1.));
#432=DIRECTION('ref_axis',(1.,0.,0.));
#433=DIRECTION('center_axis',(0.,0.,1.));
#434=DIRECTION('ref_axis',(1.,0.,0.));
#435=DIRECTION('center_axis',(0.,0.,1.));
#436=DIRECTION('ref_axis',(-0.638727562240356,0.769432973841446,0.));
#437=DIRECTION('',(0.,0.,1.));
#438=DIRECTION('center_axis',(0.,0.,1.));
#439=DIRECTION('ref_axis',(-0.638727562240356,0.769432973841446,0.));
#440=DIRECTION('',(0.,0.,-1.));
#441=DIRECTION('center_axis',(0.,0.,-1.));
#442=DIRECTION('ref_axis',(-0.638727562240356,0.769432973841446,0.));
#443=DIRECTION('center_axis',(0.,0.,1.));
#444=DIRECTION('ref_axis',(-0.638226262142916,-0.769848841209157,0.));
#445=DIRECTION('',(0.,0.,1.));
#446=DIRECTION('center_axis',(0.,0.,1.));
#447=DIRECTION('ref_axis',(-0.638226262142916,-0.769848841209157,0.));
#448=DIRECTION('center_axis',(0.,0.,-1.));
#449=DIRECTION('ref_axis',(-0.638226262142916,-0.769848841209157,0.));
#450=DIRECTION('center_axis',(0.,0.,-1.));
#451=DIRECTION('ref_axis',(0.999999115923532,0.00132971882536927,0.));
#452=DIRECTION('center_axis',(0.,0.,-1.));
#453=DIRECTION('ref_axis',(0.999998956401004,0.00144471343312603,0.));
#454=DIRECTION('center_axis',(0.,-1.,0.));
#455=DIRECTION('ref_axis',(1.,0.,0.));
#456=DIRECTION('',(1.,0.,0.));
#457=DIRECTION('',(1.,0.,0.));
#458=DIRECTION('center_axis',(0.,0.,1.));
#459=DIRECTION('ref_axis',(1.,0.,0.));
#460=DIRECTION('',(0.,-1.,0.));
#461=DIRECTION('center_axis',(0.,0.,-1.));
#462=DIRECTION('ref_axis',(1.,0.,0.));
#463=DIRECTION('',(0.,1.,0.));
#464=DIRECTION('center_axis',(0.,0.,1.));
#465=DIRECTION('ref_axis',(1.,0.,0.));
#466=DIRECTION('center_axis',(-1.,0.,0.));
#467=DIRECTION('ref_axis',(0.,-1.,0.));
#468=DIRECTION('',(0.,0.,1.));
#469=DIRECTION('',(0.,1.,0.));
#470=DIRECTION('',(0.,0.,1.));
#471=DIRECTION('center_axis',(0.,0.,1.));
#472=DIRECTION('ref_axis',(1.,0.,0.));
#473=DIRECTION('',(0.,0.,1.));
#474=DIRECTION('center_axis',(0.,0.,-1.));
#475=DIRECTION('ref_axis',(1.,0.,0.));
#476=DIRECTION('center_axis',(1.,0.,0.));
#477=DIRECTION('ref_axis',(0.,1.,0.));
#478=DIRECTION('',(0.,0.,-1.));
#479=DIRECTION('',(0.,-1.,0.));
#480=DIRECTION('center_axis',(0.,0.,1.));
#481=DIRECTION('ref_axis',(-0.013756403498115,-0.999905376204567,0.));
#482=DIRECTION('center_axis',(0.,0.,-1.));
#483=DIRECTION('ref_axis',(1.,0.,0.));
#484=DIRECTION('center_axis',(0.,0.,1.));
#485=DIRECTION('ref_axis',(1.,0.,0.));
#486=DIRECTION('center_axis',(0.,0.,1.));
#487=DIRECTION('ref_axis',(1.,0.,0.));
#488=DIRECTION('center_axis',(0.,0.,1.));
#489=DIRECTION('ref_axis',(-0.999999115923532,-0.00132971882536952,0.));
#490=CARTESIAN_POINT('',(0.,0.,0.));
#491=CARTESIAN_POINT('Origin',(0.,0.,0.05));
#492=CARTESIAN_POINT('',(-1.275,-1.56142466891287E-16,0.05));
#493=CARTESIAN_POINT('',(1.275,-1.56142466891287E-16,0.05));
#494=CARTESIAN_POINT('Origin',(0.,0.,0.05));
#495=CARTESIAN_POINT('',(1.325,-1.62265700887024E-16,0.));
#496=CARTESIAN_POINT('Origin',(1.325,-1.62265700887024E-16,0.05));
#497=CARTESIAN_POINT('Origin',(0.,0.,0.));
#498=CARTESIAN_POINT('Origin',(0.,0.,0.05));
#499=CARTESIAN_POINT('Origin',(0.,0.,0.));
#500=CARTESIAN_POINT('',(-1.275,-1.56142466891287E-16,0.125));
#501=CARTESIAN_POINT('Origin',(0.,0.,0.125));
#502=CARTESIAN_POINT('',(-1.275,-1.56142466891287E-16,0.));
#503=CARTESIAN_POINT('Origin',(2.2175,0.,0.));
#504=CARTESIAN_POINT('',(1.47437414306728,-0.276081303703477,0.));
#505=CARTESIAN_POINT('',(1.47363470886702,0.280001330036854,0.));
#506=CARTESIAN_POINT('Origin',(0.,0.,0.));
#507=CARTESIAN_POINT('Origin',(0.,0.,0.));
#508=CARTESIAN_POINT('Origin',(4.71569596233851,0.294402697629026,0.));
#509=CARTESIAN_POINT('',(4.80620918077338,0.251889672700646,0.05));
#510=CARTESIAN_POINT('',(4.71556028710085,0.194402789667919,0.05));
#511=CARTESIAN_POINT('Origin',(4.71569596233851,0.294402697629026,0.05));
#512=CARTESIAN_POINT('',(4.71556028710085,0.194402789667919,0.125));
#513=CARTESIAN_POINT('',(4.71556028710085,0.194402789667919,0.));
#514=CARTESIAN_POINT('',(4.80620918077338,0.251889672700646,0.125));
#515=CARTESIAN_POINT('Origin',(4.71569596233851,0.294402697629026,0.125));
#516=CARTESIAN_POINT('',(4.80620918077338,0.251889672700646,0.));
#517=CARTESIAN_POINT('Origin',(4.78276859089911,0.194311604558088,0.));
#518=CARTESIAN_POINT('',(1.57174134755383,0.198668177411537,0.05));
#519=CARTESIAN_POINT('',(4.24695960682868,0.195038565339711,0.05));
#520=CARTESIAN_POINT('',(1.57174134755383,0.198668177411537,0.125));
#521=CARTESIAN_POINT('',(1.57174134755383,0.198668177411537,0.));
#522=CARTESIAN_POINT('',(1.48677003434193,0.198783462548786,0.125));
#523=CARTESIAN_POINT('Origin',(4.71573543541695,-0.294486723950376,0.));
#524=CARTESIAN_POINT('',(4.71573543541695,-0.194486723950376,0.05));
#525=CARTESIAN_POINT('',(4.8062429537683,-0.251961565257181,0.05));
#526=CARTESIAN_POINT('Origin',(4.71573543541695,-0.294486723950376,0.05));
#527=CARTESIAN_POINT('',(4.8062429537683,-0.251961565257181,0.125));
#528=CARTESIAN_POINT('',(4.8062429537683,-0.251961565257181,0.));
#529=CARTESIAN_POINT('',(4.71573543541695,-0.194486723950376,0.125));
#530=CARTESIAN_POINT('Origin',(4.71573543541695,-0.294486723950376,0.125));
#531=CARTESIAN_POINT('',(4.71573543541695,-0.194486723950376,0.));
#532=CARTESIAN_POINT('Origin',(5.3425,0.,0.));
#533=CARTESIAN_POINT('Origin',(5.3425,0.,0.125));
#534=CARTESIAN_POINT('Origin',(5.3425,0.,0.05));
#535=CARTESIAN_POINT('Origin',(1.5726657526051,-0.294486723950376,0.));
#536=CARTESIAN_POINT('',(1.5726657526051,-0.194486723950376,0.05));
#537=CARTESIAN_POINT('',(1.5726657526051,-0.194486723950376,0.125));
#538=CARTESIAN_POINT('',(1.5726657526051,-0.194486723950376,0.));
#539=CARTESIAN_POINT('',(1.47437414306728,-0.276081303703477,0.125));
#540=CARTESIAN_POINT('Origin',(1.5726657526051,-0.294486723950376,0.125));
#541=CARTESIAN_POINT('',(1.47437414306728,-0.276081303703477,0.));
#542=CARTESIAN_POINT('',(1.53689883556874,-0.201101887677488,0.05));
#543=CARTESIAN_POINT('Ctrl Pts',(1.47437414306728,-0.276081303703477,6.12323399573677E-18));
#544=CARTESIAN_POINT('Ctrl Pts',(1.47439080765628,-0.275992308763228,6.61223428361909E-5));
#545=CARTESIAN_POINT('Ctrl Pts',(1.47440759312428,-0.275903336388105,0.000132244735916593));
#546=CARTESIAN_POINT('Ctrl Pts',(1.47600365874273,-0.267505914819911,0.00637459849585011));
#547=CARTESIAN_POINT('Ctrl Pts',(1.47864742161503,-0.259342002300586,0.0125905693778653));
#548=CARTESIAN_POINT('Ctrl Pts',(1.48586288962918,-0.244168477831285,0.0240806578716991));
#549=CARTESIAN_POINT('Ctrl Pts',(1.49037090967502,-0.23702090296507,0.0294677473679483));
#550=CARTESIAN_POINT('Ctrl Pts',(1.50223620252066,-0.222814088864234,0.0396537678230653));
#551=CARTESIAN_POINT('Ctrl Pts',(1.50944447538946,-0.216449594838958,0.0438682447191312));
#552=CARTESIAN_POINT('Ctrl Pts',(1.52322987127428,-0.207258627811927,0.0486984387666813));
#553=CARTESIAN_POINT('Ctrl Pts',(1.52986602735783,-0.203795492740706,0.05));
#554=CARTESIAN_POINT('Ctrl Pts',(1.53689883556874,-0.201101887677489,0.05));
#555=CARTESIAN_POINT('Origin',(1.5726657526051,-0.294486723950376,0.05));
#556=CARTESIAN_POINT('Origin',(1.57187702279149,0.298668085372644,0.));
#557=CARTESIAN_POINT('',(1.47363470886702,0.280001330036854,0.125));
#558=CARTESIAN_POINT('',(1.47363470886702,0.280001330036854,0.));
#559=CARTESIAN_POINT('Origin',(1.57187702279149,0.298668085372644,0.125));
#560=CARTESIAN_POINT('',(1.53635858316786,0.205188459535231,0.05));
#561=CARTESIAN_POINT('Origin',(1.57187702279149,0.298668085372644,0.05));
#562=CARTESIAN_POINT('Ctrl Pts',(1.53635858316786,0.205188459535231,0.05));
#563=CARTESIAN_POINT('Ctrl Pts',(1.52931863635871,0.207863351774631,0.05));
#564=CARTESIAN_POINT('Ctrl Pts',(1.52267329375897,0.211308826171408,0.0486984387666818));
#565=CARTESIAN_POINT('Ctrl Pts',(1.50886350384137,0.220463099327943,0.0438682447191346));
#566=CARTESIAN_POINT('Ctrl Pts',(1.50163833050314,0.226808400911111,0.0396537678230725));
#567=CARTESIAN_POINT('Ctrl Pts',(1.48973529751386,0.240983609793706,0.0294677473679476));
#568=CARTESIAN_POINT('Ctrl Pts',(1.48520828489684,0.248119170596282,0.0240806578716974));
#569=CARTESIAN_POINT('Ctrl Pts',(1.47795248939219,0.263273452337036,0.0125905693778694));
#570=CARTESIAN_POINT('Ctrl Pts',(1.47528702447192,0.271430305069903,0.0063745984958823));
#571=CARTESIAN_POINT('Ctrl Pts',(1.47366863209829,0.279823452309082,0.000132244735924478));
#572=CARTESIAN_POINT('Ctrl Pts',(1.47365161007337,0.279912379729725,6.61223428283525E-5));
#573=CARTESIAN_POINT('Ctrl Pts',(1.47363470886702,0.280001330036854,6.12323399573677E-18));
#574=CARTESIAN_POINT('Origin',(0.,0.,0.));
#575=CARTESIAN_POINT('Origin',(0.,0.,0.05));
#576=CARTESIAN_POINT('Origin',(1.48733819765615,-0.194486723950376,0.));
#577=CARTESIAN_POINT('',(4.78282941455973,-0.194486723950376,0.125));
#578=CARTESIAN_POINT('',(2.59911160741356,-0.194486723950376,0.05));
#579=CARTESIAN_POINT('Origin',(3.71088501717097,0.,0.05));
#580=CARTESIAN_POINT('',(5.31242884024633,0.434915578829651,0.05));
#581=CARTESIAN_POINT('',(5.31242884024633,0.358741864508548,0.05));
#582=CARTESIAN_POINT('',(5.31242884024633,0.217457789414826,0.05));
#583=CARTESIAN_POINT('',(5.38242884024633,0.357778825137239,0.05));
#584=CARTESIAN_POINT('Origin',(5.3425,0.,0.05));
#585=CARTESIAN_POINT('',(5.38242884024633,0.434915578829651,0.05));
#586=CARTESIAN_POINT('',(5.38242884024633,0.17888941256862,0.05));
#587=CARTESIAN_POINT('Origin',(5.34742884024633,0.434915578829651,0.05));
#588=CARTESIAN_POINT('Origin',(5.31242884024633,0.434915578829651,0.));
#589=CARTESIAN_POINT('',(5.31242884024633,0.434915578829651,0.125));
#590=CARTESIAN_POINT('',(5.31242884024633,0.434915578829651,0.));
#591=CARTESIAN_POINT('',(5.31242884024633,0.358741864508548,0.125));
#592=CARTESIAN_POINT('',(5.31242884024633,0.217457789414826,0.125));
#593=CARTESIAN_POINT('',(5.31242884024633,0.358741864508548,0.));
#594=CARTESIAN_POINT('Origin',(5.34742884024633,0.434915578829651,0.));
#595=CARTESIAN_POINT('',(5.38242884024633,0.434915578829651,0.125));
#596=CARTESIAN_POINT('',(5.38242884024633,0.434915578829651,0.));
#597=CARTESIAN_POINT('Origin',(5.34742884024633,0.434915578829651,0.125));
#598=CARTESIAN_POINT('Origin',(5.38242884024633,0.357778825137239,0.));
#599=CARTESIAN_POINT('',(5.38242884024633,0.357778825137239,0.125));
#600=CARTESIAN_POINT('',(5.38242884024633,0.357778825137239,0.));
#601=CARTESIAN_POINT('',(5.38242884024633,0.17888941256862,0.125));
#602=CARTESIAN_POINT('Origin',(5.3425,0.,0.));
#603=CARTESIAN_POINT('Origin',(5.3425,0.,0.125));
#604=CARTESIAN_POINT('Origin',(2.2175,0.,0.125));
#605=CARTESIAN_POINT('Origin',(0.,0.,0.125));
#606=CARTESIAN_POINT('Origin',(0.,0.,0.));
#607=UNCERTAINTY_MEASURE_WITH_UNIT(LENGTH_MEASURE(0.000393700787401575),
#612,'DISTANCE_ACCURACY_VALUE',
'Maximum model space distance between geometric entities at asserted c
onnectivities');
#608=UNCERTAINTY_MEASURE_WITH_UNIT(LENGTH_MEASURE(0.000393700787401575),
#612,'DISTANCE_ACCURACY_VALUE',
'Maximum model space distance between geometric entities at asserted c
onnectivities');
#609=(
GEOMETRIC_REPRESENTATION_CONTEXT(3)
GLOBAL_UNCERTAINTY_ASSIGNED_CONTEXT((#607))
GLOBAL_UNIT_ASSIGNED_CONTEXT((#612,#616,#617))
REPRESENTATION_CONTEXT('','3D')
);
#610=(
GEOMETRIC_REPRESENTATION_CONTEXT(3)
GLOBAL_UNCERTAINTY_ASSIGNED_CONTEXT((#608))
GLOBAL_UNIT_ASSIGNED_CONTEXT((#612,#616,#617))
REPRESENTATION_CONTEXT('','3D')
);
#611=DIMENSIONAL_EXPONENTS(1.,0.,0.,0.,0.,0.,0.);
#612=(
CONVERSION_BASED_UNIT('inch',#615)
LENGTH_UNIT()
NAMED_UNIT(#611)
);
#613=(
LENGTH_UNIT()
NAMED_UNIT(*)
SI_UNIT(.MILLI.,.METRE.)
);
#614=(
LENGTH_UNIT()
NAMED_UNIT(*)
SI_UNIT($,.METRE.)
);
#615=LENGTH_MEASURE_WITH_UNIT(LENGTH_MEASURE(25.4),#613);
#616=(
NAMED_UNIT(*)
PLANE_ANGLE_UNIT()
SI_UNIT($,.RADIAN.)
);
#617=(
NAMED_UNIT(*)
SI_UNIT($,.STERADIAN.)
SOLID_ANGLE_UNIT()
);
#618=SHAPE_DEFINITION_REPRESENTATION(#619,#620);
#619=PRODUCT_DEFINITION_SHAPE('',$,#622);
#620=SHAPE_REPRESENTATION('',(#343),#609);
#621=PRODUCT_DEFINITION_CONTEXT('part definition',#626,'design');
#622=PRODUCT_DEFINITION('nalgene strap','nalgene strap v2',#623,#621);
#623=PRODUCT_DEFINITION_FORMATION('',$,#628);
#624=PRODUCT_RELATED_PRODUCT_CATEGORY('nalgene strap v2',
'nalgene strap v2',(#628));
#625=APPLICATION_PROTOCOL_DEFINITION('international standard',
'automotive_design',2009,#626);
#626=APPLICATION_CONTEXT(
'Core Data for Automotive Mechanical Design Process');
#627=PRODUCT_CONTEXT('part definition',#626,'mechanical');
#628=PRODUCT('nalgene strap','nalgene strap v2',$,(#627));
#629=PRESENTATION_STYLE_ASSIGNMENT((#630));
#630=SURFACE_STYLE_USAGE(.BOTH.,#631);
#631=SURFACE_SIDE_STYLE('',(#632));
#632=SURFACE_STYLE_FILL_AREA(#633);
#633=FILL_AREA_STYLE('Steel - Satin',(#634));
#634=FILL_AREA_STYLE_COLOUR('Steel - Satin',#635);
#635=COLOUR_RGB('Steel - Satin',0.627450980392157,0.627450980392157,0.627450980392157);
ENDSEC;
END-ISO-10303-21;
